<svg viewBox="0 0 500 113" xmlns="http://www.w3.org/2000/svg"><title>Wheeling Health &amp; Fitness Center | Wheeling Park District</title><path fill="#FFFFFF" d="M6.409,28.281L1.249,28.281L1.249,0.44L6.409,0.44L6.409,11.951L20.84,11.951L20.84,0.44L26,0.44L26,28.281L20.84,28.281L20.84,16.356L6.409,16.356L6.409,28.281ZM50.58,16.283L50.58,23.95L66.301,23.95L66.301,28.281L45.42,28.281L45.42,0.44L65.742,0.44L65.742,4.772L50.58,4.772L50.58,12.024L64.038,12.024L64.038,16.283L50.58,16.283ZM88.176,21.857L85.43,28.281L80.076,28.281L92.61,0.44L97.696,0.44L110.278,28.281L104.875,28.281L102.117,21.857L88.176,21.857ZM100.373,17.792L95.131,5.581L89.913,17.792L100.373,17.792ZM125.732,28.281L125.732,0.44L130.891,0.44L130.891,23.925L145.445,23.925L145.445,28.306L125.708,28.306L125.732,28.281ZM164.574,28.281L164.574,4.821L155.35,4.821L155.35,0.44L178.981,0.44L178.981,4.821L169.757,4.821L169.757,28.281L164.574,28.281ZM199.984,16.356L199.984,28.281L194.824,28.281L194.824,0.44L199.984,0.44L199.984,11.951L214.367,11.951L214.367,0.44L219.526,0.44L219.526,28.281L214.367,28.281L214.367,16.356L199.984,16.356ZM279.178,25.286C278.38,25.972 277.514,26.558 276.572,27.04C274.576,28.062 272.361,28.598 269.879,28.598L269.903,28.695C267.956,28.695 266.228,28.379 264.695,27.746C263.162,27.113 261.945,26.237 261.069,25.118C260.193,23.998 259.755,22.708 259.755,21.248C259.755,19.934 260.047,18.717 260.631,17.671C261.215,16.6 262.14,15.602 263.405,14.628C264.196,14.02 265.129,13.412 266.205,12.804C265.588,12.169 265.069,11.572 264.647,11.002C264.087,10.272 263.697,9.542 263.454,8.836C263.211,8.131 263.089,7.4 263.089,6.67C263.089,5.381 263.43,4.237 264.087,3.239C264.744,2.241 265.693,1.487 266.91,0.927C268.127,0.391 269.538,0.099 271.169,0.099C272.678,0.099 273.992,0.343 275.087,0.83C276.182,1.316 277.058,2.022 277.667,2.947C278.3,3.872 278.592,4.967 278.592,6.232C278.592,7.352 278.324,8.374 277.764,9.323C277.204,10.272 276.328,11.148 275.16,12C274.513,12.463 273.758,12.932 272.888,13.413L278.9,19.176C279.61,17.827 280.149,16.23 280.49,14.385L284.505,15.699C283.994,18.147 283.157,20.289 281.957,22.107L285.503,25.507L282.753,28.72L279.178,25.286ZM270.132,10.764C270.858,10.376 271.474,10.02 271.972,9.688C272.872,9.104 273.481,8.544 273.846,8.009C274.211,7.473 274.381,6.914 274.381,6.33C274.381,5.527 274.114,4.894 273.554,4.407C272.994,3.92 272.191,3.677 271.169,3.677C270.049,3.677 269.198,3.945 268.565,4.48C267.932,5.015 267.64,5.746 267.64,6.622C267.64,7.084 267.737,7.522 267.908,7.936C268.078,8.35 268.394,8.836 268.833,9.372C269.169,9.762 269.596,10.229 270.132,10.764ZM268.922,15.439C268.158,15.865 267.514,16.278 266.983,16.673C266.131,17.306 265.523,17.938 265.158,18.571C264.793,19.204 264.598,19.91 264.598,20.688C264.598,21.467 264.841,22.124 265.304,22.708C265.766,23.292 266.423,23.755 267.275,24.071C268.127,24.412 269.125,24.558 270.268,24.558C271.972,24.558 273.505,24.169 274.892,23.414C275.375,23.152 275.831,22.842 276.262,22.486L268.922,15.439ZM6.433,66.417L6.433,77.077L1.249,77.077L1.249,49.235L21.57,49.235L21.57,53.567L6.433,53.567L6.433,62.037L19.891,62.037L19.891,66.417L6.433,66.417ZM38.533,77.077L38.533,49.235L43.693,49.235L43.693,77.077L38.533,77.077ZM68.808,77.077L68.808,53.616L59.585,53.616L59.585,49.235L83.216,49.235L83.216,53.616L73.992,53.616L73.992,77.077L68.808,77.077ZM104.17,58.234L104.17,77.077L99.035,77.077L99.035,49.235L103.293,49.235L118.65,68.078L118.65,49.235L123.785,49.235L123.785,77.077L119.526,77.077L104.17,58.234ZM148.365,65.054L148.365,72.72L164.087,72.72L164.087,77.052L143.206,77.052L143.206,49.211L163.527,49.211L163.527,53.543L148.365,53.543L148.365,60.795L161.824,60.795L161.824,65.054L148.365,65.054ZM190.419,77.466C188.253,77.466 186.16,77.15 184.165,76.541C182.169,75.933 180.587,75.106 179.419,74.132L181.22,70.116C182.339,70.993 183.702,71.723 185.357,72.307C187.012,72.891 188.691,73.183 190.419,73.183C191.879,73.183 193.048,73.013 193.972,72.696C194.873,72.38 195.53,71.942 195.968,71.406C196.382,70.871 196.601,70.238 196.601,69.557C196.601,68.705 196.284,68.023 195.676,67.512C195.068,67.001 194.289,66.588 193.315,66.271C192.342,65.979 191.271,65.687 190.103,65.419C188.935,65.152 187.742,64.835 186.574,64.495C185.382,64.13 184.311,63.667 183.362,63.107C182.388,62.548 181.609,61.769 181.001,60.82C180.392,59.871 180.076,58.654 180.076,57.169C180.076,55.685 180.49,54.273 181.293,53.008C182.096,51.742 183.337,50.744 184.992,49.99C186.647,49.235 188.74,48.846 191.295,48.846C192.975,48.846 194.63,49.065 196.26,49.479C197.915,49.893 199.327,50.501 200.568,51.304L198.937,55.32C197.696,54.565 196.406,54.03 195.068,53.665C193.729,53.3 192.464,53.129 191.247,53.129C189.811,53.129 188.667,53.3 187.767,53.64C186.866,53.981 186.233,54.444 185.82,55.003C185.406,55.563 185.211,56.196 185.211,56.902C185.211,57.753 185.503,58.435 186.112,58.946C186.72,59.457 187.499,59.871 188.448,60.163C189.397,60.455 190.492,60.747 191.685,61.014C192.877,61.282 194.07,61.599 195.238,61.939C196.406,62.28 197.501,62.742 198.45,63.302C199.424,63.862 200.203,64.616 200.787,65.565C201.395,66.515 201.687,67.731 201.687,69.192C201.687,70.652 201.273,72.039 200.47,73.305C199.667,74.57 198.426,75.568 196.747,76.322C195.068,77.077 192.975,77.466 190.419,77.466ZM227.387,77.466C225.221,77.466 223.128,77.15 221.132,76.541C219.137,75.933 217.555,75.106 216.387,74.132L218.188,70.116C219.307,70.993 220.67,71.723 222.325,72.307C223.98,72.891 225.659,73.183 227.387,73.183C228.847,73.183 230.015,73.013 230.94,72.696C231.841,72.38 232.498,71.942 232.936,71.406C233.349,70.871 233.568,70.238 233.568,69.557C233.568,68.705 233.252,68.023 232.644,67.512C232.035,67.001 231.256,66.588 230.283,66.271C229.31,65.979 228.239,65.687 227.071,65.419C225.902,65.152 224.71,64.835 223.542,64.495C222.349,64.13 221.278,63.667 220.329,63.107C219.356,62.548 218.577,61.769 217.969,60.82C217.36,59.871 217.044,58.654 217.044,57.169C217.044,55.685 217.457,54.273 218.261,53.008C219.064,51.742 220.305,50.744 221.96,49.99C223.615,49.235 225.708,48.846 228.263,48.846C229.942,48.846 231.597,49.065 233.228,49.479C234.883,49.893 236.294,50.501 237.535,51.304L235.905,55.32C234.664,54.565 233.374,54.03 232.035,53.665C230.697,53.3 229.431,53.129 228.214,53.129C226.778,53.129 225.635,53.3 224.734,53.64C223.834,53.981 223.201,54.444 222.787,55.003C222.374,55.563 222.179,56.196 222.179,56.902C222.179,57.753 222.471,58.435 223.079,58.946C223.688,59.457 224.466,59.871 225.416,60.163C226.365,60.455 227.46,60.747 228.652,61.014C229.845,61.282 231.037,61.599 232.206,61.939C233.374,62.28 234.469,62.742 235.418,63.302C236.392,63.862 237.17,64.616 237.754,65.565C238.363,66.515 238.655,67.731 238.655,69.192C238.655,70.652 238.241,72.039 237.438,73.305C236.635,74.57 235.394,75.568 233.714,76.322C232.035,77.077 229.942,77.466 227.387,77.466ZM291.514,77.466C289.397,77.466 287.426,77.125 285.601,76.42C283.775,75.714 282.193,74.716 280.855,73.426C279.516,72.136 278.47,70.628 277.74,68.875C276.985,67.123 276.62,65.225 276.62,63.156C276.62,61.087 276.985,59.189 277.74,57.437C278.494,55.685 279.541,54.176 280.879,52.886C282.242,51.596 283.8,50.598 285.625,49.893C287.426,49.187 289.397,48.846 291.563,48.846C293.851,48.846 295.919,49.235 297.818,50.014C299.692,50.793 301.298,51.961 302.588,53.494L299.254,56.634C298.256,55.539 297.112,54.736 295.871,54.176C294.63,53.64 293.267,53.373 291.806,53.373C290.346,53.373 289.008,53.616 287.815,54.078C286.598,54.565 285.552,55.222 284.676,56.098C283.775,56.975 283.094,58.021 282.607,59.214C282.12,60.406 281.877,61.72 281.877,63.156C281.877,64.592 282.12,65.906 282.607,67.099C283.094,68.291 283.775,69.338 284.676,70.214C285.576,71.09 286.623,71.771 287.815,72.234C289.032,72.72 290.346,72.94 291.806,72.94C293.267,72.94 294.605,72.672 295.871,72.136C297.136,71.601 298.256,70.774 299.254,69.654L302.588,72.842C301.298,74.351 299.692,75.495 297.818,76.298C295.944,77.101 293.851,77.491 291.539,77.491L291.514,77.466ZM324.661,65.054L324.661,72.72L340.383,72.72L340.383,77.052L319.502,77.052L319.502,49.211L339.823,49.211L339.823,53.543L324.661,53.543L324.661,60.795L338.095,60.795L338.095,65.054L324.661,65.054ZM363.211,58.234L363.211,77.077L358.076,77.077L358.076,49.235L362.335,49.235L377.691,68.078L377.691,49.235L382.826,49.235L382.826,77.077L378.567,77.077L363.211,58.234ZM407.893,77.077L407.893,53.616L398.669,53.616L398.669,49.235L422.301,49.235L422.301,53.616L413.077,53.616L413.077,77.077L407.893,77.077ZM443.279,65.054L443.279,72.72L459,72.72L459,77.052L438.119,77.052L438.119,49.211L458.441,49.211L458.441,53.543L443.279,53.543L443.279,60.795L456.737,60.795L456.737,65.054L443.279,65.054ZM481.901,68.973L481.901,77.101L476.742,77.101L476.718,77.077L476.718,49.235L488.18,49.235C490.638,49.235 492.756,49.625 494.532,50.428C496.284,51.231 497.647,52.351 498.621,53.859C499.57,55.344 500.057,57.096 500.057,59.141C500.057,61.185 499.57,62.937 498.621,64.422C497.672,65.906 496.309,67.026 494.532,67.804C494.395,67.865 494.256,67.922 494.115,67.978L500.495,77.077L494.922,77.077L489.26,68.947C488.909,68.964 488.549,68.973 488.18,68.973L481.901,68.973ZM481.877,64.714L487.913,64.714C490.2,64.714 491.904,64.227 493.072,63.253C494.216,62.28 494.8,60.917 494.8,59.165C494.8,57.413 494.216,56.025 493.072,55.076C491.928,54.127 490.2,53.64 487.913,53.64L481.877,53.64L481.877,64.714ZM5.362,112.682L0.495,98.006L3.318,98.006L6.958,109.171L10.741,98.006L13.247,98.006L16.952,109.244L20.719,98.006L23.323,98.006L18.455,112.682L15.559,112.682L11.919,101.826L8.234,112.682L5.362,112.682ZM34.591,106.403L34.591,112.682L31.865,112.682L31.865,98.006L34.591,98.006L34.591,104.066L42.184,104.066L42.184,98.006L44.909,98.006L44.909,112.682L42.184,112.682L42.184,106.403L34.591,106.403ZM57.881,106.354L57.881,110.394L66.155,110.394L66.155,112.682L55.155,112.682L55.155,98.006L65.863,98.006L65.863,100.294L57.881,100.294L57.881,104.115L64.963,104.115L64.963,106.354L57.881,106.354ZM78.227,106.354L78.227,110.394L86.501,110.394L86.501,112.682L75.501,112.682L75.501,98.006L86.209,98.006L86.209,100.294L78.227,100.294L78.227,104.115L85.309,104.115L85.309,106.354L78.227,106.354ZM95.846,112.682L95.846,98.006L98.572,98.006L98.572,110.37L106.238,110.37L106.238,112.682L95.846,112.682ZM114.707,112.682L114.707,98.006L117.433,98.006L117.433,112.682L114.707,112.682ZM130.38,102.742L130.38,112.682L127.679,112.682L127.679,98.006L129.918,98.006L137.998,107.946L137.998,98.006L140.699,98.006L140.699,112.682L138.46,112.682L130.38,102.742ZM163.576,110.97L163.6,111.002C162.821,111.611 161.945,112.073 160.923,112.39C159.901,112.706 158.879,112.852 157.857,112.852L157.832,112.901C156.688,112.901 155.642,112.706 154.668,112.341C153.719,111.976 152.868,111.44 152.162,110.759C151.456,110.078 150.896,109.274 150.507,108.35C150.117,107.425 149.923,106.427 149.923,105.332C149.923,104.237 150.117,103.239 150.507,102.314C150.896,101.389 151.456,100.586 152.186,99.905C152.916,99.223 153.744,98.712 154.717,98.323C155.691,97.933 156.737,97.763 157.881,97.763C159.122,97.763 160.242,97.958 161.239,98.372C162.237,98.785 163.089,99.369 163.77,100.148L162.043,101.827C161.458,101.243 160.85,100.83 160.193,100.562C159.536,100.294 158.806,100.148 158.003,100.148C157.2,100.148 156.518,100.27 155.861,100.537C155.204,100.781 154.644,101.146 154.157,101.608C153.671,102.071 153.306,102.606 153.062,103.239C152.795,103.872 152.673,104.553 152.673,105.307C152.673,106.062 152.795,106.743 153.062,107.352C153.33,107.96 153.695,108.52 154.157,109.007C154.62,109.493 155.204,109.834 155.837,110.078C156.469,110.321 157.2,110.467 157.978,110.467C158.708,110.467 159.414,110.345 160.096,110.126C160.404,110.016 160.703,109.881 160.996,109.714L160.996,105.161L163.576,105.161L163.576,110.97ZM188.253,108.471L188.253,112.706L185.528,112.706L185.528,98.006L191.563,98.006C192.853,98.006 193.972,98.225 194.922,98.639C195.846,99.053 196.576,99.661 197.063,100.44C197.574,101.219 197.818,102.144 197.818,103.239C197.818,104.334 197.574,105.234 197.063,106.038C196.552,106.816 195.846,107.425 194.922,107.839C193.997,108.252 192.877,108.471 191.563,108.471L188.253,108.471ZM188.253,106.159L191.441,106.159C192.634,106.159 193.559,105.892 194.167,105.381C194.776,104.869 195.092,104.164 195.092,103.239C195.092,102.314 194.8,101.584 194.167,101.073C193.534,100.562 192.658,100.318 191.441,100.318L188.253,100.318L188.253,106.159ZM204.024,112.682L210.619,98.006L213.296,98.006L219.915,112.682L217.068,112.682L215.613,109.299L208.247,109.299L206.798,112.682L204.024,112.682ZM214.692,107.157L211.922,100.718L209.164,107.157L214.692,107.157ZM230.843,108.398L230.843,112.682L228.117,112.682L228.117,98.006L234.153,98.006C235.442,98.006 236.562,98.225 237.511,98.639C238.436,99.053 239.166,99.661 239.653,100.44C240.164,101.219 240.407,102.144 240.407,103.239C240.407,104.334 240.164,105.234 239.653,106.013C239.142,106.792 238.436,107.376 237.511,107.79C237.434,107.824 237.357,107.857 237.277,107.888L240.626,112.682L237.706,112.682L234.705,108.386C234.525,108.394 234.341,108.398 234.153,108.398L230.843,108.398ZM230.843,106.159L234.031,106.159C235.223,106.159 236.148,105.892 236.757,105.381C237.365,104.869 237.681,104.139 237.681,103.215C237.681,102.29 237.389,101.56 236.757,101.049C236.124,100.537 235.248,100.294 234.031,100.294L230.843,100.294L230.843,106.159ZM252.454,108.926L252.454,112.682L249.728,112.682L249.728,98.006L252.454,98.006L252.454,105.534L259.706,98.006L262.773,98.006L256.603,104.551L263.162,112.682L259.974,112.682L254.797,106.519L252.454,108.926ZM283.386,112.706L283.386,98.006L289.811,98.006C291.417,98.006 292.804,98.323 293.997,98.931C295.189,99.54 296.138,100.391 296.796,101.487C297.477,102.582 297.793,103.872 297.793,105.356C297.793,106.841 297.453,108.106 296.796,109.201C296.114,110.297 295.189,111.148 293.997,111.781C292.804,112.414 291.393,112.706 289.811,112.706L283.386,112.706ZM286.112,110.37L289.665,110.37C290.76,110.37 291.733,110.151 292.537,109.737C293.34,109.323 293.972,108.739 294.411,107.985C294.849,107.23 295.068,106.354 295.068,105.332C295.068,104.31 294.849,103.434 294.411,102.679C293.972,101.925 293.34,101.341 292.537,100.927C291.733,100.513 290.784,100.294 289.665,100.294L286.112,100.294L286.112,110.37ZM307.017,112.682L307.017,98.006L309.743,98.006L309.743,112.682L307.017,112.682ZM324.539,112.901C323.396,112.901 322.301,112.73 321.254,112.414C320.208,112.097 319.38,111.659 318.747,111.148L319.696,109.031C320.281,109.493 321.011,109.883 321.887,110.175C322.763,110.491 323.639,110.637 324.539,110.637C325.318,110.637 325.927,110.564 326.413,110.394C326.9,110.224 327.241,110.005 327.46,109.712C327.679,109.42 327.801,109.104 327.801,108.739C327.801,108.301 327.63,107.936 327.314,107.668C326.998,107.4 326.584,107.181 326.073,107.011C325.562,106.841 325.002,106.695 324.369,106.549C323.736,106.403 323.128,106.257 322.495,106.062C321.862,105.867 321.303,105.624 320.792,105.332C320.281,105.04 319.867,104.626 319.55,104.115C319.234,103.604 319.064,102.971 319.064,102.192C319.064,101.414 319.283,100.659 319.696,100.002C320.135,99.345 320.767,98.81 321.643,98.42C322.52,98.031 323.615,97.812 324.978,97.812C325.854,97.812 326.73,97.933 327.606,98.152C328.482,98.372 329.236,98.688 329.869,99.126L329.017,101.243C328.36,100.854 327.679,100.562 326.973,100.367C326.267,100.172 325.61,100.075 324.953,100.075C324.199,100.075 323.59,100.172 323.128,100.343C322.666,100.513 322.325,100.757 322.106,101.049C321.887,101.341 321.789,101.681 321.789,102.046C321.789,102.484 321.935,102.849 322.252,103.117C322.568,103.385 322.982,103.604 323.493,103.75C324.004,103.896 324.564,104.042 325.197,104.212C325.829,104.358 326.462,104.529 327.071,104.699C327.703,104.894 328.263,105.113 328.774,105.405C329.285,105.697 329.699,106.111 330.015,106.597C330.332,107.108 330.478,107.741 330.478,108.496C330.478,109.25 330.259,110.005 329.845,110.662C329.407,111.319 328.774,111.854 327.874,112.268C326.998,112.657 325.878,112.876 324.539,112.876L324.539,112.901ZM342.257,112.682L342.257,100.318L337.389,100.318L337.389,98.006L349.85,98.006L349.85,100.318L344.982,100.318L344.982,112.682L342.257,112.682ZM360.923,108.398L360.923,112.682L358.197,112.682L358.197,98.006L364.233,98.006C365.523,98.006 366.642,98.225 367.591,98.639C368.516,99.053 369.246,99.661 369.733,100.44C370.244,101.219 370.487,102.144 370.487,103.239C370.487,104.334 370.244,105.234 369.733,106.013C369.222,106.792 368.516,107.376 367.591,107.79C367.515,107.824 367.437,107.857 367.358,107.888L370.706,112.682L367.786,112.682L364.785,108.386C364.605,108.394 364.421,108.398 364.233,108.398L360.923,108.398ZM360.923,106.159L364.111,106.159C365.304,106.159 366.228,105.892 366.837,105.381C367.445,104.869 367.762,104.139 367.762,103.215C367.762,102.29 367.47,101.56 366.837,101.049C366.204,100.537 365.328,100.294 364.111,100.294L360.923,100.294L360.923,106.159ZM379.808,112.682L379.808,98.006L382.534,98.006L382.534,112.682L379.808,112.682ZM399.594,112.901C398.475,112.901 397.428,112.706 396.479,112.341C395.53,111.976 394.678,111.44 393.972,110.759C393.267,110.078 392.707,109.274 392.318,108.35C391.928,107.425 391.733,106.427 391.733,105.332C391.733,104.237 391.928,103.239 392.318,102.314C392.707,101.389 393.267,100.586 393.972,99.905C394.678,99.223 395.506,98.712 396.479,98.323C397.428,97.958 398.475,97.763 399.594,97.763C400.787,97.763 401.882,97.958 402.88,98.372C403.878,98.785 404.705,99.394 405.386,100.197L403.634,101.852C403.099,101.268 402.515,100.854 401.858,100.562C401.2,100.27 400.495,100.124 399.716,100.124C398.937,100.124 398.256,100.245 397.599,100.513C396.966,100.757 396.406,101.122 395.944,101.584C395.481,102.046 395.116,102.582 394.849,103.215C394.581,103.847 394.459,104.529 394.459,105.283C394.459,106.038 394.581,106.719 394.849,107.352C395.116,107.985 395.481,108.52 395.944,108.982C396.406,109.445 396.966,109.81 397.599,110.053C398.231,110.297 398.937,110.443 399.716,110.443C400.495,110.443 401.2,110.297 401.858,110.005C402.515,109.712 403.099,109.274 403.634,108.69L405.386,110.37C404.705,111.173 403.853,111.781 402.88,112.195C401.882,112.609 400.787,112.828 399.57,112.828L399.594,112.901ZM417.141,112.682L417.141,100.318L412.274,100.318L412.274,98.006L424.734,98.006L424.734,100.318L419.867,100.318L419.867,112.682L417.141,112.682Z"/></svg>